<?xml version="1.0" encoding="UTF-8"?>
<svg width="545" height="160" inkscape:version="1.0.2 (e86c870879, 2021-01-15)" sodipodi:docname="Psycho-pass.logo.svg" version="1.1" viewBox="0 0 545 160" xmlns="http://www.w3.org/2000/svg" xmlns:cc="http://creativecommons.org/ns#" xmlns:dc="http://purl.org/dc/elements/1.1/" xmlns:inkscape="http://www.inkscape.org/namespaces/inkscape" xmlns:rdf="http://www.w3.org/1999/02/22-rdf-syntax-ns#" xmlns:sodipodi="http://sodipodi.sourceforge.net/DTD/sodipodi-0.dtd">
 <metadata>
  <rdf:RDF>
   <cc:Work rdf:about="">
    <dc:format>image/svg+xml</dc:format>
    <dc:type rdf:resource="http://purl.org/dc/dcmitype/StillImage"/>
    <dc:title/>
   </cc:Work>
  </rdf:RDF>
 </metadata>
 <sodipodi:namedview bordercolor="#666666" borderopacity="1" gridtolerance="10" guidetolerance="10" inkscape:current-layer="svg869" inkscape:cx="339.56867" inkscape:cy="162.95145" inkscape:document-rotation="0" inkscape:pageopacity="0" inkscape:pageshadow="2" inkscape:window-height="1014" inkscape:window-maximized="1" inkscape:window-width="1920" inkscape:window-x="0" inkscape:window-y="0" inkscape:zoom="1.6035242" objecttolerance="10" pagecolor="#ffffff" showgrid="false"/>
 <path d="m223 155c-1.05-1.42-1.16-2.26-1.4-10.3l-.258-8.75-2.29 3.35c-2.1 3.08-2.48 3.33-4.66 3.11l-2.37-.244-.289-6.18 2.01-.0316c1.71-.027 2.35-.576 4.34-3.75 1.28-2.05 4.06-6.31 6.17-9.48 2.11-3.17 3.84-6.3 3.84-6.96 0-1.67 3.19-1.63 3.56.0427.541 2.49-.354 5.04-3.32 9.45-2.58 3.84-3.03 4.9-3.03 7.17 0 1.67.301 2.96.814 3.46.72.712.744 1.12.211 3.54-.331 1.51-.728 5.98-.882 9.94-.298 7.67-.537 8.22-2.45 5.62zm-53.1-.223c0-.541.563-2.02 1.25-3.29 1.04-1.93 1.64-2.31 3.61-2.33 2.11-.0184 2.57-.375 4.34-3.32l1.98-3.3v-12.3h-5.59v9.88h-3.73v-9.88h-2.33c-2.24 0-2.33-.0879-2.33-2.31 0-3.11.781-4.28 2.86-4.28h1.75l.282-8.57 3.79-.161-.409 8.73h5.71l.0495-2.68c.0272-1.47.0796-3.3.116-4.05.0832-1.71 3.42-5.86 3.82-4.74.155.443.137 3.21-.041 6.14l-.323 5.33 2.27.0579c1.25.0318 2.64.319 3.1.637.732.512.65.884-.699 3.17-.852 1.45-2.15 2.71-2.93 2.86l-1.4.268-.0777 6.59c-.0427 3.62-.0952 7.01-.116 7.53-.0214.519-1.55 3.21-3.39 5.97l-3.35 5.03h-4.1c-2.87 0-4.1-.296-4.1-.984zm87.5.312-1.28-.261 2.44-5.66h5.93c7.75 0 7.47.516 7.47-13.9v-10.8h-14.4v-6.62l9.67.223c9.55.22 9.67.243 9.67 2 0 .978.143 2.03.317 2.35.175.312.228.994.118 1.52-.203.967-.568 7.82-.976 18.3-.218 5.63-.309 6-2.27 9.41l-2.04 3.55-6.66.0657c-3.66.0361-7.23-.0516-7.94-.195zm44.1-2.42c.402-1.25 1.56-4.27 2.57-6.73l1.84-4.46v-11.3c0-6.24.191-11.6.424-11.8.682-.746 1.91.43 1.91 1.83 0 .709.361 1.99.802 2.86.657 1.28.803 3.23.808 10.8l.006 9.21-4.55 11.9h-4.55l.73-2.27zm18.5-.412c-1.61-7.09-5.65-29.1-5.65-30.8 0-1.3.209-1.77.65-1.47.358.243.96-.341 1.34-1.3.655-1.65.741-1.44 1.77 4.27.593 3.3 1.22 6.31 1.39 6.67.172.366.421-1.73.554-4.65.133-2.92.384-5.73.559-6.23.507-1.45 10.3-1.21 10.9.268.442.942.36 1.36-.409 2.09-.68.644-.962 1.72-.962 3.69 0 2.09-.354 3.31-1.43 4.91-1.28 1.91-1.83 2.13-5.17 2.13-3.37 0-3.71.141-3.42 1.44 1.15 5.12 3.96 19.7 3.97 20.6.002.643-.657 1.03-1.76 1.03-1.55 0-1.83-.319-2.37-2.68zm6.81-27.6c.132-.709-.392-1.03-1.68-1.03-1.83 0-2.7.841-2.05 1.98.524.927 3.53.16 3.73-.954zm26.8 27.2.145-3.09h2.46c1.35 0 2.61-.42 2.79-.933.606-1.7 4.96-12.7 6.74-17 .961-2.32 1.75-4.72 1.75-5.31 0-.839-1.27-1.09-5.58-1.09-5.57 0-5.58-.004-5.87-2.07-.579-4.08.199-4.52 8.02-4.52h7.16v2.43c0 1.45.326 2.75.805 3.23.763.755.763.879 0 2.37-.443.866-.805 1.93-.805 2.37s-.975 3.17-2.17 6.06l-2.17 5.27 1.47 2.17c.807 1.19 1.47 2.54 1.47 2.99 0 1.79 2.11 4.35 3.19 3.86.8-.37 1.46.191 2.67 2.25.88 1.51 1.6 3.04 1.6 3.4 0 .364-1.76.662-3.92.662h-3.92l-2.6-5.08c-1.43-2.8-2.6-4.7-2.6-4.23s-.856 2.76-1.9 5.08l-1.9 4.23h-6.96zm-291-64.5c-.173-.495-.823-.663-1.46-.379-.98.435-1.74-.499-5.07-6.26-3.72-6.43-3.92-6.95-3.92-10.3v-3.56h3.63c3.62 0 3.64.0074 5.45 3.29l1.82 3.29h4.08c3.9 0 4.15-.113 5.73-2.56 1.51-2.35 1.65-2.93 1.65-7.11 0-4.15-.146-4.8-1.66-7.33l-1.66-2.77h-11.8l-3.6-6.4c-2.96-5.27-3.6-6.86-3.6-9 0-1.43.279-3.09.62-3.7.341-.603.539-1.52.44-2.05-.0987-.524.232-1.18.735-1.47 1.3-.732 1.6-2.73.504-3.35-1.05-.59-.766-2.03.407-2.06.433-.01 1.31-.723 1.94-1.59l1.15-1.57-1.3-.576c-.917-.407-1.22-.949-1.02-1.85.152-.701.0074-1.58-.322-1.96-.435-.497-.31-.823.46-1.2.876-.424.959-.723.482-1.74-.966-2.06 1.76-5.68 4.82-6.38 1.37-.316 3.48-1.18 4.69-1.92 1.85-1.13 2.52-1.18 4.32-.338 1.17.552 2.73 1 3.47 1 1.06 0 2.06 1.31 4.77 6.24 2.97 5.41 3.46 6.72 3.68 9.88l.254 3.65h-3.85c-3.31 0-3.91-.22-4.32-1.57-.262-.866-1.23-2.4-2.16-3.41-1.5-1.64-2.08-1.78-5.36-1.34-5.31.724-6.95 3.22-6.95 10.6 0 2.81.277 3.8 1.72 6.14l1.72 2.79h11.7l7.2 12.8v19.1l-1.57.52c-.862.286-1.91.288-2.33.0034-1.09-.741-.98 1.74.17 3.78 1.31 2.31 1.18 2.94-.871 4.39-.991.701-1.93 1.88-2.1 2.63-.403 1.86-.398 1.88.522 2.24.448.173-.565.756-2.25 1.3-3.86 1.23-10.5 1.29-10.9.0907zm-6.73-55.1c.621-.71.621-.798 0-.798-.384 0-1.01.359-1.4.798-.621.71-.621.798 0 .798.384 0 1.01-.359 1.4-.798zm143 55.1c.165-.473.0468-1.4-.263-2.06-.461-.982-.26-1.69 1.1-3.9l1.66-2.7-2.42-1.1c-1.33-.603-2.89-1.06-3.47-1.02-.576.043-1.05-.288-1.05-.736 0-.449 1.46-.861 3.26-.917 3.92-.124 4.02-.145 4.46-.927.192-.34-.105-.618-.66-.618-.766 0-1.01-.496-1.01-2.06 0-1.13.157-2.06.349-2.06.192 0 .349-3.58.349-7.96 0-5.64.17-8.06.582-8.31.32-.189.582-1.62.582-3.18 0-1.76.265-3.02.695-3.31.459-.312.605-1.11.428-2.36-.147-1.04-.0584-2.11.197-2.39.26-.285-.132-1.56-.894-2.91-.821-1.45-1.36-3.27-1.36-4.6 0-1.27-.443-2.85-1.05-3.75-.753-1.12-.891-1.74-.49-2.21.677-.797.971-9.47.446-13.2-.306-2.16-.239-2.68.345-2.68.556 0 .659-.573.445-2.47l-.28-2.47h7.57v32.9h14.9v-3.64c0-2.18-.234-3.78-.582-3.98-.461-.274-.456-.617.0228-1.64.46-.985.472-1.44.0536-1.9-.726-.793 1.26-2.77 2.84-2.82.64-.023 1.48-.401 1.86-.84.521-.595.263-.802-1.01-.811-1.51-.0111-3.18-1.65-3.18-3.11 0-.278.456-1.36 1.01-2.41.557-1.05.819-1.91.582-1.92-.237-.0066-.737-.355-1.11-.773-.583-.652-.557-1 .181-2.44.625-1.22.726-1.97.369-2.73-.349-.744-.319-1.46.104-2.49.512-1.24 1.42-1.44 6.51-1.44 3.67 0 5.81.301 5.64.792-.152.435-1 1.03-1.89 1.33-1.15.381-1.61.974-1.61 2.05 0 .834-.245 2.47-.545 3.63-.483 1.88-.395 2.39.786 4.57 1 1.85 1.14 2.46.572 2.46-1.2 0-1.51 1.78-.535 3.06.87 1.14.87 1.18-.0179 2.35-.497.652-1.18 1.18-1.51 1.18-.866 0-.757 2.24.154 3.14.706.699.704 1.21-.0317 6.84-.437 3.34-.913 10.5-1.06 16-.144 5.44-.489 10.4-.766 11-.374.831-.31 1.37.248 2.09.476.616.671 1.72.53 3.02-.15 1.39.0906 2.55.744 3.6.531.85.966 1.92.966 2.37 0 .453-.419.153-.932-.667-.922-1.48-.932-1.44-.932 3.58 0 4.52.101 5.07.932 5.07.512 0 .932.371.932.824 0 .494-1.86.824-4.65.824h-4.65l-.126-16.3-.126-16.3h-14.4l-.253 32.5h-3.92c-2.16 0-4.05.371-4.21.824-.158.453-.602.824-.987.824-.384 0-.564-.387-.398-.86zm58.7-5.45c-1.95-3.02-3.76-6.22-4.04-7.12-.621-2.05-.529-34.4.101-35.5.242-.43.441-2.29.441-4.14 0-1.85.324-4.18.719-5.17.561-1.42.605-2.19.2-3.53-.402-1.33-.364-2.14.167-3.57.613-1.65.604-1.95-.0834-2.75-.668-.778-.339-1.67 2.48-6.74l3.25-5.84h14.5l3.7 6.59c2.82 5.01 4.01 6.59 4.97 6.59 1.57 0 2.13 1.34.86 2.06-1.08.609-1.26 2.06-.256 2.06.375 0 .891.69 1.15 1.53.367 1.21.215 1.95-.723 3.5l-1.19 1.97 1.79.537c.983.295 2.63 1.11 3.65 1.82 1.53 1.05 1.66 1.29.699 1.31-1.46.0426-5.12 3.41-5.12 4.72 0 .537.472 1.24 1.05 1.57.901.512.754.723-1.05 1.5-1.71.739-2.07 1.21-1.94 2.55.0862.903.558 2.41 1.05 3.34 1.13 2.15 1.12 3.03-.0403 4.89-.826 1.32-.932 2.54-.932 10.7v9.2l-7.81 13.5h-14zm16.4-11.2c1.42-2.44 1.54-3.02 1.55-8.03.01-3.12.298-6.27.682-7.46 1.12-3.47.866-5.32-.947-6.85-.905-.763-2.06-1.39-2.56-1.39s-.916-.371-.916-.824.23-.824.512-.824 1.17-.521 1.98-1.16c.807-.637 2.06-1.39 2.79-1.68 1.25-.494 1.3-.697 1.01-3.78-.245-2.57-.154-3.37.428-3.76 1.09-.738.905-1.74-.542-2.98-.941-.807-1.28-1.69-1.26-3.34.0124-1.52-.222-2.24-.728-2.24-.411 0-1.35-1.11-2.09-2.47-1.3-2.41-1.45-2.47-5.77-2.47-4.35 0-4.46.0464-5.97 2.63l-1.54 2.63v41.2l1.49 2.72c1.48 2.7 1.52 2.72 5.92 2.72 4.35 0 4.46-.0467 5.96-2.63zm86.6 15.1c-1.38-1.14-1.54-1.57-1.2-3.17.222-1.02.777-1.87 1.23-1.88.789-.0249.79-.0806.015-1.12-.855-1.15-1.12-5.02-.394-5.81.232-.253.309-2.66.171-5.35-.138-2.69-.0845-5.56.119-6.38.203-.823.43-3.16.504-5.2.0743-2.04.226-5.47.337-7.62.111-2.15.0417-3.91-.155-3.91-.196 0-.504-2.78-.684-6.17-.269-5.07-.195-6.4.411-7.47.985-1.74.932-2.83-.137-2.83-.481 0-1.14-.563-1.46-1.25-.479-1.02-.446-1.53.176-2.74.994-1.94.971-3.92-.0522-4.63-.702-.485-.637-.73.466-1.76 1.6-1.5 1.61-2.26.0456-3.52-.932-.751-1.1-1.23-.699-1.94.823-1.46.649-3.91-.278-3.93-.697-.0108-.714-.129-.116-.811.405-.463 5.82-.804 12.9-.811l12.2-.0126 7.56 13.6v20.1l-7.69 13.3-4.19-.508c-4.79-.58-8.48-.547-9.67.088-.459.246-.815 1.24-.815 2.28 0 1.01-.231 2.25-.512 2.74-.373.659-.233 1.4.511 2.72.634 1.12.949 2.5.828 3.62-.187 1.73-.0592 1.8 2.63 1.61l2.83-.209-3.03 1.3c-1.67.717-3.18 1.72-3.37 2.23-.189.507-.275 2.59-.191 4.63.0843 2.04-.0754 4.38-.355 5.2-.404 1.19-.323 1.73.396 2.68.497.652 1.28 1.19 1.75 1.19s.843.364.843.808c0 2.03-8.65 2.76-10.9.92zm21.9-47.6c1.48-2.09 1.61-2.61 1.61-6.84 2e-5-4.1-.16-4.85-1.55-7.23l-1.55-2.66-11.6.465-.132 9.27-.132 9.27h5.86c5.7 0 5.91-.0644 7.47-2.27zm25.6 48.5c-.142-.406.545-6.63 1.53-13.8.981-7.2 2.15-16 2.6-19.6 1.41-11.2 1.61-12.1 2.91-12.9 1.21-.813 1.21-.821.242-2.02-.86-1.06-.917-1.56-.495-4.29.262-1.7.712-3.6.999-4.22.287-.623.46-2.19.383-3.48-.101-1.7.211-2.93 1.13-4.43.957-1.57 1.08-2.08.5-2.08-1.01 0-.98-1.35.0484-2.41.623-.641.653-.845.129-.865-.44-.0161-.283-.524.438-1.42 1.3-1.6 2.81-4.18 2.81-4.79 0-.227-.751-.412-1.67-.412-2.27 0-1.86-1.9.541-2.56 1-.275 1.46-.553 1.01-.618-.749-.107-1.24-3.41-.511-3.41.9 0 5.33 4.37 5.91 5.82.777 1.96.524 4.83-.563 6.36-.662.933-.669 1.16-.057 1.84.383.428.958.784 1.28.791.811.0176.726 1.25-.178 2.57-.691 1.01-.667 1.16.26 1.54 1.23.514 1.34 1.97.175 2.33-3.82 1.16-1.28 2.69 4.23 2.55 2.59-.063 4.79.315 5.65.97l1.4 1.07-2.1.459c-1.22.267-2.05.856-1.99 1.41.0628.587-.785 1.06-2.21 1.24-1.63.199-2.31-.0223-2.31-.746 0-2.64-2 .432-2.46 3.77-.221 1.6.005 2.12 1.35 3.11.889.657 1.8.99 2.03.739.229-.25.651.201.938 1 .372 1.04.592 1.16.766.429.291-1.22 1.56-1.39 1.56-.206 0 .453-.22.824-.488.824-.8 0-2.73 4.16-2.48 5.34.13.598.0118 1.33-.262 1.63-1.13 1.23-.357 2.09 1.87 2.09 2 0 2.34.222 2.21 1.44-.0854.793-.637 1.56-1.23 1.71-.591.149-.974.702-.855 1.24.119.531.581 3.75 1.03 7.14.447 3.4 1.31 9.88 1.92 14.4.611 4.53 1.16 8.79 1.21 9.47.0818 1.01-.604 1.24-3.84 1.24h-3.94l-1.79-12.8-10.3.464-.989 6.18-.989 6.18-3.56.239c-1.96.132-3.67-.093-3.82-.499zm17.7-26.8c.16-.231-2.98-22.8-3.24-23.3-.142-.25-.503 1.71-.803 4.35-.3 2.64-.947 7.64-1.44 11.1-1.28 9.07-1.4 8.64 2.25 8.25 1.73-.187 3.18-.394 3.23-.46zm6.21-17.8c0-.453-.327-.824-.726-.824-.399 0-.597.371-.438.824.158.453.485.824.726.824.241 0 .438-.371.438-.824zm29.9 38.7c-3.68-6.33-3.84-6.76-3.84-10.3v-3.68h7.13l3.19 6.59h4.53c4.51 0 4.54-.0104 6.02-2.72 1.27-2.32 1.49-3.32 1.49-6.84 0-3.58-.201-4.47-1.54-6.76l-1.54-2.63h-11.6l-3.34-5.8c-1.84-3.19-3.69-6.84-4.11-8.11-.72-2.15-.717-2.45.0399-4.49.446-1.2 1.08-2.19 1.41-2.19.9 0 1.8-5.06 1.05-5.9-.323-.363-.797-.677-1.05-.698-.256-.0207-.0873-.427.375-.903.66-.679.724-1.11.297-2.02-.299-.637-.408-1.78-.243-2.54.167-.771.0352-1.68-.297-2.04-.428-.47.326-2.3 2.65-6.45l3.25-5.79h14.5l4.1 7.29c3.74 6.65 4.09 7.53 3.95 10.1l-.152 2.8-7 .474-3.67-6.65h-4.48c-4.3 0-4.53.0929-5.73 2.31-1.07 1.98-1.25 3.01-1.25 7.26 0 4.35.159 5.22 1.31 7.16 1.27 2.16 1.45 2.21 7.03 2.21h5.73l2.17 3.41c1.19 1.87 3.18 4.16 4.41 5.07 2.14 1.59 2.23 1.8 2.1 4.63-.136 2.8-.0621 2.97 1.37 3.22 1.85.316 1.93 1.36.233 2.94l-1.28 1.2 1.16.771c.641.424 1.48.951 1.86 1.17.384.22-.297.666-1.51.992-2.46.659-2.87 1.81-.958 2.66 1.23.545 1.23.571.222 1.23-.901.589-.958.886-.446 2.33.518 1.47.398 1.96-1.04 4.24-.893 1.42-3.02 4.95-4.72 7.83l-3.1 5.25-14.8-.0164-3.84-6.6zm53.1-.0806c-3.6-6.34-3.8-6.89-3.8-10.3v-3.6h3.49c3.49 0 3.5.0082 5.18 3.29l1.68 3.29h4.35c3.89 0 4.54-.222 6.12-2.1 1.94-2.31 3.12-5.96 2.41-7.49-.287-.615-.184-1.39.295-2.24.668-1.18.596-1.4-.799-2.44-.843-.631-1.93-1.94-2.42-2.91-.819-1.63-1.35-1.76-6.84-1.76h-5.95l-7.51-13.4v-6.82c0-7.43.143-7.82 2.88-7.82 1.1 0 1.35-.291 1.13-1.31-.201-.925.125-1.58 1.11-2.24 2.51-1.68 1.36-3.81-2.1-3.87-2.75-.0469-.157-1.46 3.91-2.13l4.01-.661-8.85-1.78 4.43-.693c2.43-.381 6.05-.928 8.04-1.21 1.99-.287 3.65-.892 3.69-1.34.0835-.921.164-.892-4.98-1.78l-3.73-.645 6.06-.5c3.33-.275 6.34-.245 6.69.0659.35.311 2.18 3.29 4.08 6.61 3.21 5.65 3.44 6.28 3.44 9.59v3.55h-3.4c-3.35 0-3.42-.0458-5.22-3.29l-1.82-3.29h-4.38c-4.36 0-4.38.0129-5.96 2.8-1.37 2.42-1.58 3.34-1.58 6.84 0 3.49.21 4.4 1.54 6.67l1.54 2.63h11.4l9.06 15.1-.146 3.77c-.0803 2.07-.185 6-.233 8.72l-.0868 4.95-8.18 14.4h-14.7l-3.8-6.7zm-511-33.5.132-39.3 21.7-.443 1.39 2.07c.767 1.14 1.95 2.12 2.64 2.17.789.0605.946.234.43.472-1.52.702-.826 1.78 1.75 2.73 1.41.517 2.56 1.27 2.56 1.67 0 .833-2.98 2.44-4.54 2.45-.576.0025-1.05.375-1.05.828 0 .453.821.824 1.83.824 1 0 2.15.223 2.56.495.615.417.566.732-.311 2-.961 1.39-.977 1.55-.209 2.08.722.497.823 1.55.757 7.97l-.0762 7.39-8.03 13.8-6.75.0599c-7.69.0682-13.3 1.35-6.67 1.52 2.1.0522 3.94.439 4.08.861.151.431-1.32 1.01-3.37 1.33l-3.63.561.181 2.74c.0995 1.51.579 3.38 1.06 4.15.947 1.52 1.15 3.64.463 4.91-.244.454-.256 2.51-.0278 4.9.216 2.27.405 5.69.421 7.62l.0278 3.5h-7.48zm20.3-9.31c1.37-2.27 1.51-2.96 1.51-7.26 0-4.18-.163-5.02-1.38-7.08-1.14-1.94-1.88-2.4-4.31-2.69-1.61-.195-4.24-.111-5.84.187l-2.91.542v18.8l11.4-.0082 1.51-2.51zm86.8 32.6c0-8.83-.007-16.3-.0154-16.7-.009-.34.778-.809 1.75-1.04 1.67-.403 1.71-.478.745-1.44-.56-.559-2.03-1.02-3.26-1.03-1.62-.0091-2.05-.234-1.54-.811.384-.439 1.26-.804 1.94-.811 1.05-.0106 1.22-.335 1.11-2.09-.162-2.61-1.38-5.04-2.85-5.69-.949-.421-1.13-1-1.13-3.64 0-2.25-.318-3.66-1.13-5.01-.62-1.03-1.38-3.04-1.7-4.47-.315-1.43-.846-3.71-1.18-5.07-.983-4-2.98-13.7-2.98-14.5 0-1.03 1.26-.897 2.3.253.691.763 1.3.738 2.75-.112 1.03-.6 2.16-.89 2.52-.646.703.477 1.59 4.51 4.34 19.8.961 5.32 1.89 9.68 2.07 9.68.179 0 1.56-6.58 3.07-14.6l2.74-14.6 4.08-.238c2.5-.146 4.08.0809 4.08.587 0 1.47-8.24 40-9.39 44-.241.821-.314 2.18-.163 3.02.197 1.1-.188 2.15-1.38 3.75-1.64 2.21-2.18 4.49-1.07 4.51.405.0088.38.239-.0847.759-.367.41-.668 1.98-.669 3.49-.002 2.28.189 2.79 1.13 3.03.624.157 1.41.685 1.75 1.17.499.725.477 1.02-.116 1.61-1.11 1.1-.873 2.03.669 2.57 1.75.619 1.83 2.18.116 2.2-.705.0066-1.6.388-1.98.848-.584.698-.438 1.23.893 3.25l1.59 2.42-1.27.855c-.7.47-2.73.855-4.5.855h-3.23zm41.8 9.66-3.6-6.4v-6.27c0-5.78.0912-6.38 1.16-7.62.64-.742 1.16-1.62 1.15-1.95-.0147-.769-3.08-3.48-3.94-3.48-.957 0-1.39-1.72-.65-2.55.353-.395 1.19-.725 1.87-.732.966-.0099 1.28-.495 1.47-2.28.135-1.25.0669-2.65-.152-3.12-.585-1.25.0759-2.64 1.57-3.31 2.06-.915.879-1.84-3.42-2.68l-3.96-.769 2.79-.192c1.54-.106 3.32-.45 3.96-.764 1.78-.877 1.68-2.87-.215-4.08-1.25-.801-1.65-1.52-1.65-3 0-1.25.347-2.14.966-2.49.886-.497.905-.661.233-1.97-.403-.787-.738-1.77-.745-2.19-.007-.417-.845-1.67-1.86-2.78-2.03-2.21-2.35-3.34-.947-3.34.497 0 1.03-.371 1.19-.824.158-.453 1.2-1.23 2.32-1.73 1.79-.798 3.34-3.21 2.06-3.21-.948 0 .196-1.85 2.08-3.36 1.63-1.31 3.1-1.55 9.62-1.56l7.7-.0181 3.69 6.56c3.29 5.84 3.7 6.92 3.78 9.88l.096 3.33h-3.67c-3.59 0-3.71-.0677-5.44-3l-1.77-3-4.41.159c-4.12.148-4.49.307-5.7 2.41l-1.29 2.25-.0416 20.7-.0415 20.7 2.65 5.88 8.98 5e-5 3.37-6.59h7.36l.0123 3.09c.011 2.77-.376 3.78-3.79 9.88l-3.8 6.8h-15.4l-3.6-6.4zm79.6-16.4c-.43-.76-.39-1.92.0662-1.92.207 0 .784.544 1.28 1.21.888 1.19.887 1.21-.0662 1.24-.534.0144-1.11-.221-1.28-.523zm-214-6.86c-.178-.509.567-.792 1.95-.742 1.82.0666 2.02.206 1.08.742-1.67.946-2.7.946-3.03 0zm293-4.2c-.538-.952-1.69-2.01-2.55-2.34-1.5-.584-1.45-.641 1.11-1.25 3.02-.717 3.82-1.79 1.88-2.55-2.23-.87-2.27-.966-.85-1.96 1.04-.728 1.22-1.14.741-1.67-1.18-1.29 4.14-1.82 15.6-1.54 11.6.285 14.3 1.02 11.2 3.01-1.24.793-1.54 1.37-1.35 2.64.213 1.44.00078 1.62-1.84 1.62-2.1 0-3.14 1.19-3.77 4.32-.262 1.31-1.16 1.44-9.75 1.44-8.99 0-9.51-.0857-10.4-1.73zm-78.5-5.42c.336-.238.738-.209.893.065.155.274-.12.468-.611.433-.543-.0395-.653-.235-.281-.498zm-185-20.9c-.507-1.45.0275-1.66.985-.375.788 1.05.802 1.2.11 1.23-.433.0144-.926-.369-1.09-.852zm383-3.24c0-.458 1.24-.824 2.79-.824 1.55 0 2.79.366 2.79.824 0 .458-1.24.824-2.79.824-1.55 0-2.79-.366-2.79-.824zm-378-4.16c-.282-.931-.429-2.13-.327-2.67.102-.54.461-.0561.799 1.08.337 1.13.844 2.33 1.13 2.66.318.376.21.61-.286.618-.439.0066-1.03-.749-1.31-1.68zm377-4.66c.708-.189 1.76-.184 2.33.0112.573.196-.006.35-1.29.344-1.28-.0066-1.75-.166-1.04-.355z" stroke-width=".619" inkscape:connector-curvature="0"/>
</svg>
